<svg xmlns="http://www.w3.org/2000/svg" xmlns:xlink="http://www.w3.org/1999/xlink" width="400" height="400" viewBox="0 0 400 400">
<rect data-name="background" width="100%" height="100%" fill="#FFFFFF"/><g data-name="monogram" fill="#000000" data="id:170" transform="translate(-0.8547512414523837,96.87702628910648) scale(3.9833242202925296)"><path d="M21.4453125,11.77734375l5.859375,0l0,28.22265625l-5.859375,0l0-11.6015625l-11.93359375,0l0,11.6015625l-5.859375,0l0-28.22265625l5.859375,0l0,11.5234375l11.93359375,0l0-11.5234375z"/></g><g data-name="business_name" fill="#000000" data="id:33" transform="translate(130.3623889438961,146.76474117140665) scale(1.0609512552877038)"><path d="M27.04,20l0,28l-2.6,0l0-28l2.6,0z M8.08,20l0,28l-2.6,0l0-28l2.6,0z M24.8,33.56l0,1.2l-17.12,0l0-1.2l17.12,0z M5.6,45.08l0,2.92l-3.2,0l0-0.4l0.26,0l0.26,0q1.04,0,1.78-0.74t0.78-1.78l0.12,0z M5.6,22.92l-0.12,0q-0.04-1.04-0.78-1.78t-1.78-0.74l-0.26,0l-0.26,0l0-0.4l3.2,0l0,2.92z M7.96,45.08l0.12,0q0.04,1.04,0.78,1.78t1.78,0.74l0.24,0l0.28,0l0,0.4l-3.2,0l0-2.92z M7.96,22.92l0-2.92l3.2,0l0,0.4l-0.28,0l-0.24,0q-1.04,0-1.78,0.74t-0.78,1.78l-0.12,0z M24.56,45.08l0,2.92l-3.2,0l0-0.4l0.28,0l0.24,0q1.04,0,1.8-0.74t0.76-1.78l0.12,0z M24.56,22.92l-0.12,0q0-1.04-0.76-1.78t-1.8-0.74l-0.24,0l-0.28,0l0-0.4l3.2,0l0,2.92z M26.92,45.08l0.12,0q0.04,1.04,0.78,1.78t1.78,0.74l0.26,0l0.26,0l0,0.4l-3.2,0l0-2.92z M26.92,22.92l0-2.92l3.2,0l0,0.4l-0.26,0l-0.26,0q-1.04,0-1.78,0.74t-0.78,1.78l-0.12,0z M46.88,19.44l11.84,28.32l-3.4,0l-9.24-24.52z M38.28,45.08q-0.28,0.8-0.08,1.36t0.66,0.86t0.94,0.3l0.36,0l0,0.4l-8.04,0l0-0.4l0.18,0l0.18,0q0.92,0,1.9-0.58t1.62-1.94l2.28,0z M46.88,19.44l0.36,2.8l-10.04,25.64l-2.4,0l10.24-24.32l0.22-0.5t0.52-1.22t0.52-1.4t0.22-1l0.36,0z M52.52,37.08l0,1.2l-12.52,0l0-1.2l12.52,0z M54.32,45.08l3.28,0q0.6,1.36,1.6,1.94t1.92,0.58l0.16,0l0.16,0l0,0.4l-9,0l0-0.4l0.36,0q0.76,0,1.36-0.66t0.16-1.86z M69.08,20l0,28l-2.6,0l0-28l2.6,0z M66.6,45.08l0,2.92l-3.2,0l0-0.4l0.26,0l0.26,0q1.04,0,1.78-0.74t0.78-1.78l0.12,0z M66.6,22.92l-0.12,0q-0.04-1.04-0.78-1.78t-1.78-0.74l-0.26,0l-0.26,0l0-0.4l3.2,0l0,2.92z M68.96,45.08l0.12,0q0.04,1.04,0.78,1.78t1.78,0.74l0.24,0l0.28,0l0,0.4l-3.2,0l0-2.92z M68.96,22.92l0-2.92l3.2,0l0,0.4l-0.28,0l-0.24,0q-1.04,0-1.78,0.74t-0.78,1.78l-0.12,0z M82.08,20l5.64,0q1.8,0,3.26,0.52t2.46,1.5t1.54,2.36t0.54,3.14q0,1.92-0.9,3.68t-2.44,2.86t-3.46,1.1q0.68,0.28,1.48,1.14t1.4,1.66l0.54,0.78t1.36,1.9t1.66,2.2t1.44,1.72q0.8,0.88,1.6,1.56t1.74,1.08t2.1,0.4l0,0.4l-2.2,0q-1.84,0-3.18-0.56t-2.26-1.38t-1.56-1.58q-0.12-0.16-0.66-0.92t-1.28-1.82t-1.46-2.1t-1.24-1.78t-0.6-0.86q-0.76-1-1.68-1.84t-2-0.84l0-0.4l0.62,0.02t1.5-0.02q1.04-0.04,2.28-0.32t2.32-1.16t1.64-2.68q0.12-0.44,0.2-1.1t0.04-1.3q-0.04-2.72-1.38-4.34t-3.58-1.74q-1.12-0.08-2.3-0.06t-1.98,0.02l-0.8,0q0-0.04-0.1-0.34l-0.2-0.6z M82.6,20l0,28l-2.6,0l0-28l2.6,0z M80.12,45.08l0,2.92l-3.2,0l0-0.4l0.26,0l0.26,0q1.04,0,1.78-0.74t0.78-1.78l0.12,0z M80.12,22.92l-0.12,0q-0.04-1.04-0.78-1.78t-1.78-0.74l-0.26,0l-0.26,0l0-0.4l3.2,0l0,2.92z M82.48,45.08l0.12,0q0,1.04,0.76,1.78t1.8,0.74l0.24,0l0.24,0l0,0.4l-3.16,0l0-2.92z  M125.96,19.44l11.84,28.32l-3.4,0l-9.24-24.52z M117.36,45.08q-0.28,0.8-0.08,1.36t0.66,0.86t0.94,0.3l0.36,0l0,0.4l-8.04,0l0-0.4l0.18,0l0.18,0q0.92,0,1.9-0.58t1.62-1.94l2.28,0z M125.96,19.44l0.36,2.8l-10.04,25.64l-2.4,0l10.24-24.32l0.22-0.5t0.52-1.22t0.52-1.4t0.22-1l0.36,0z M131.6,37.08l0,1.2l-12.52,0l0-1.2l12.52,0z M133.4,45.08l3.28,0q0.6,1.36,1.6,1.94t1.92,0.58l0.16,0l0.16,0l0,0.4l-9,0l0-0.4l0.36,0q0.76,0,1.36-0.66t0.16-1.86z M147.44,20l0,17.6q0,2.88,1.06,5.08t2.98,3.42t4.44,1.22q2.68,0,4.68-1.16t3.12-3.22t1.12-4.82l0-18.12l1.88,0l0,18.12q0,3.12-1.34,5.46t-3.78,3.66t-5.68,1.32q-3.32,0-5.82-1.3t-3.88-3.64t-1.38-5.46l0-18.16l2.6,0z M144.96,20l0,2.4l-0.12,0q0-0.88-0.62-1.44t-1.5-0.56l-0.32,0l-0.32,0l0-0.4l2.88,0z M150.2,20l0,0.4l-0.32,0l-0.32,0q-0.88,0-1.5,0.56t-0.62,1.44l-0.08,0l0-2.4l2.84,0z M164.96,20l0,2.4l-0.12,0q0-0.88-0.62-1.44t-1.5-0.56l-0.32,0l-0.32,0l0-0.4l2.88,0z M169.48,20l0,0.4l-0.32,0l-0.32,0q-0.88,0-1.5,0.56t-0.62,1.44l-0.08,0l0-2.4l2.84,0z M187.44,20q4.28,0,7.5,1.74t5.04,4.9t1.82,7.36t-1.82,7.34t-5.04,4.9t-7.5,1.76l-8.56,0l-0.04-1.2l0.86,0l2.16,0l2.58,0l2.14,0l0.86,0q3.44,0,5.98-1.6t3.96-4.48t1.42-6.72t-1.42-6.72t-3.98-4.48t-5.96-1.6l-0.9,0l-2.24,0l-2.68,0l-2.26,0l-0.92,0l0-1.2l9,0z M179.56,20l0,28l-2.6,0l0-28l2.6,0z M177.08,45.08l0,2.92l-3.2,0l0-0.4l0.26,0l0.26,0q1.04,0,1.78-0.74t0.78-1.78l0.12,0z M177.08,22.92l-0.12,0q0-1.04-0.76-1.78t-1.8-0.74l-0.24,0l-0.24,0l-0.04-0.4l3.2,0l0,2.92z M211.84,20l0,28l-2.6,0l0-28l2.6,0z M209.36,45.08l0,2.92l-3.2,0l0-0.4l0.26,0l0.26,0q1.04,0,1.78-0.74t0.78-1.78l0.12,0z M209.36,22.92l-0.12,0q-0.04-1.04-0.78-1.78t-1.78-0.74l-0.26,0l-0.26,0l0-0.4l3.2,0l0,2.92z M211.72,45.08l0.12,0q0.04,1.04,0.78,1.78t1.78,0.74l0.24,0l0.28,0l0,0.4l-3.2,0l0-2.92z M211.72,22.92l0-2.92l3.2,0l0,0.4l-0.28,0l-0.24,0q-1.04,0-1.78,0.74t-0.78,1.78l-0.12,0z M230.96,20.12l0,27.88l-2.6,0l0-27.88l2.6,0z M241.24,19.96l0,1.2l-23.16,0l0-1.2l23.16,0z M241.24,21.04l0,3.24l-0.4-0.04l0-0.68q0-1-0.7-1.68t-1.66-0.72l0-0.12l2.76,0z M241.24,19.24l0,1.16l-4.88-0.44q0.88,0,1.86-0.12t1.82-0.28t1.2-0.32z M228.48,45.08l0,2.92l-3.2,0l0-0.4l0.26,0l0.26,0q1.04,0,1.78-0.74t0.78-1.78l0.12,0z M230.84,45.08l0.12,0q0.04,1.04,0.78,1.78t1.78,0.74l0.26,0l0.26,0l0,0.4l-3.2,0l0-2.92z M220.84,21.04l0,0.12q-1,0.04-1.68,0.72t-0.68,1.68l0,0.68l-0.4,0.04l0-3.24l2.76,0z M218.08,19.24q0.4,0.16,1.22,0.32t1.82,0.28t1.84,0.12l-4.88,0.44l0-1.16z"/></g><g data-name="slogan" fill="#000000" data="id:277" transform="translate(131.5724430456108,197.47322330536318) scale(0.607376893033322)"><path d="M2.2,48l0-1.32q1.52-0.08,2.08-0.7t0.62-1.72t0.06-2.5l0-17.28q0-0.8,0.04-1.54t0.08-1.34l-1.44,0.08l-1.44,0.08l0-1.76l9,0l0,1.32q-1.48,0.04-2.06,0.68t-0.64,1.72t-0.06,2.52l0,6.64l14.32,0l0-8.4q0-0.8,0.04-1.54t0.08-1.34l-1.44,0.08l-1.44,0.08l0-1.76l9,0l0,1.32q-1.48,0.04-2.06,0.68t-0.64,1.72t-0.06,2.52l0,17q0,1.08-0.02,1.86t-0.1,1.3l1.44-0.08l1.44-0.08l0,1.76l-9,0l0-1.32q1.52-0.08,2.08-0.7t0.62-1.72t0.06-2.5l0-7.28l-14.32,0.16l0,8.6q0,1.08-0.02,1.86t-0.1,1.3l1.44-0.08l1.44-0.08l0,1.76l-9,0z M45.12,48q-0.12-0.68-0.16-1.2t-0.12-1.08q-1.36,1.36-2.94,2.14t-3.34,0.78q-3.04,0-4.52-1.38t-1.48-3.38q0-1.84,1.14-3.18t2.96-2.2t3.96-1.28t4.14-0.38l0-2.48q0-1.4-0.24-2.64t-1.04-2.04t-2.56-0.84q-1.16-0.04-2.38,0.44t-1.78,1.64q0.32,0.32,0.42,0.74t0.1,0.78q0,0.48-0.4,1.1t-1.4,0.58q-0.84,0-1.28-0.58t-0.44-1.38q0-1.36,1.02-2.44t2.82-1.72t4.08-0.64q3.36,0,4.96,1.78t1.56,5.62l0,2.98t-0.02,3t-0.02,3.02q0,0.64-0.04,1.28t-0.12,1.44q0.72-0.04,1.42-0.08t1.42-0.08l0,1.68l-5.72,0z M44.76,38.2q-1.36,0.04-2.86,0.34t-2.76,0.9t-2.04,1.58t-0.74,2.38q0.08,1.48,0.98,2.22t2.14,0.74q1.64,0,2.86-0.62t2.42-1.74q-0.04-0.44-0.04-0.96l0-1.08q0-0.2,0.02-1.28t0.02-2.48z M53.6,46.8q1.24,0,1.72-0.62t0.56-1.72t0.08-2.54l0-9.12q0-0.64,0.04-1.22t0.12-1.38q-0.72,0.04-1.42,0.08t-1.42,0.08l0-1.68q1.76,0,2.72-0.16t1.46-0.4t0.78-0.52l1.16,0l0,16.16q0,0.8-0.02,1.42t-0.14,1.3q0.64-0.04,1.26-0.06t1.26-0.06l0,1.64l-8.16,0l0-1.2z M57.44,23.64q-0.84,0-1.48-0.68t-0.64-1.68t0.66-1.7t1.5-0.7q0.92,0,1.54,0.7t0.62,1.7t-0.66,1.68t-1.54,0.68z M64.84,46.8q1.24,0,1.72-0.62t0.56-1.72t0.08-2.54l0-9.12q0-0.64,0.02-1.28t0.14-1.32q-0.72,0.04-1.42,0.06t-1.42,0.06l0-1.64l1.24,0q1.72,0,2.38-0.34t1.1-0.74l1.16,0q0.08,0.64,0.12,1.58t0.08,2.38q0.6-1,1.64-1.96t2.34-1.6t2.74-0.64q1.12,0,1.96,0.6t0.84,1.92q0,0.32-0.2,0.78t-0.64,0.8t-1.16,0.34q-0.88-0.04-1.4-0.7t-0.4-1.54q-1-0.04-2.06,0.52t-1.98,1.54t-1.64,2.3l0.04,9.84q0,0.8-0.02,1.42t-0.14,1.3q0.64-0.04,1.26-0.06t1.26-0.06l0,1.64l-8.2,0l0-1.2z  M114.08,28.44q-0.04-2.36-0.48-3.92t-1.54-2.34t-3.18-0.74l-3.4,0l-0.04,21.8q0,1.08-0.02,1.86t-0.1,1.3q0.84-0.04,1.66-0.08t1.66-0.08l0,1.76l-9.4,0l0-1.32q1.52-0.08,2.06-0.72t0.6-1.74t0.06-2.46l0.04-20.28l-4.12,0.04q-2.52,0-3.56,1.68t-1.04,5.24l-1.48,0l0.24-8.44l23.32,0l0.24,8.44l-1.52,0z M118.28,46.8q1.24,0,1.72-0.62t0.56-1.72t0.08-2.54l0-9.12q0-0.64,0.02-1.28t0.14-1.32q-0.72,0.04-1.42,0.06t-1.42,0.06l0-1.64l1.24,0q1.72,0,2.38-0.34t1.1-0.74l1.16,0q0.08,0.64,0.12,1.58t0.08,2.38q0.6-1,1.64-1.96t2.34-1.6t2.74-0.64q1.12,0,1.96,0.6t0.84,1.92q0,0.32-0.2,0.78t-0.64,0.8t-1.16,0.34q-0.88-0.04-1.4-0.7t-0.4-1.54q-1-0.04-2.06,0.52t-1.98,1.54t-1.64,2.3l0.04,9.84q0,0.8-0.02,1.42t-0.14,1.3q0.64-0.04,1.26-0.06t1.26-0.06l0,1.64l-8.2,0l0-1.2z M147.76,48q-0.12-0.68-0.16-1.2t-0.12-1.08q-1.36,1.36-2.94,2.14t-3.34,0.78q-3.04,0-4.52-1.38t-1.48-3.38q0-1.84,1.14-3.18t2.96-2.2t3.96-1.28t4.14-0.38l0-2.48q0-1.4-0.24-2.64t-1.04-2.04t-2.56-0.84q-1.16-0.04-2.38,0.44t-1.78,1.64q0.32,0.32,0.42,0.74t0.1,0.78q0,0.48-0.4,1.1t-1.4,0.58q-0.84,0-1.28-0.58t-0.44-1.38q0-1.36,1.02-2.44t2.82-1.72t4.08-0.64q3.36,0,4.96,1.78t1.56,5.62l0,2.98t-0.02,3t-0.02,3.02q0,0.64-0.04,1.28t-0.12,1.44q0.72-0.04,1.42-0.08t1.42-0.08l0,1.68l-5.72,0z M147.4,38.2q-1.36,0.04-2.86,0.34t-2.76,0.9t-2.04,1.58t-0.74,2.38q0.08,1.48,0.98,2.22t2.14,0.74q1.64,0,2.86-0.62t2.42-1.74q-0.04-0.44-0.04-0.96l0-1.08q0-0.2,0.02-1.28t0.02-2.48z M156.24,48l0-1.2q1.24,0,1.72-0.62t0.56-1.72t0.08-2.54l0.04-9.12q0-0.64,0.02-1.28t0.14-1.32q-0.72,0.04-1.42,0.08t-1.42,0.08l0-1.68q1.76,0,2.66-0.16t1.34-0.4t0.72-0.52l1.16,0q0.04,0.28,0.06,0.64t0.06,0.8t0.04,1q0.88-0.76,1.94-1.36t2.24-0.96t2.34-0.36q3.48,0,5.08,2.18t1.6,6.78l0,7.44q0,0.8-0.02,1.42t-0.14,1.3q0.64-0.04,1.26-0.06t1.26-0.06l0,1.64l-8.16,0l0-1.2q1.24,0,1.72-0.62t0.56-1.72t0.08-2.54l0-5.6q-0.04-3.44-1.14-5.2t-3.46-1.72q-1.44,0.04-2.82,0.76t-2.3,1.84q0.04,0.32,0.04,0.72l0,0.84l-0.04,10.2q0,0.8-0.02,1.42t-0.14,1.3q0.64-0.04,1.26-0.06t1.26-0.06l0,1.64l-8.16,0z M188.72,48.64q-2,0-3.56-0.54t-2.56-1.22l0.16,1.4l-1.68,0l-0.24-6.88l1.24,0q0.08,1.64,0.92,2.94t2.16,2.02t2.84,0.72q1.04,0,2.04-0.34t1.68-1.04t0.68-1.78q0-1.12-0.66-1.86t-1.74-1.3t-2.32-1.04q-1.2-0.48-2.4-1t-2.22-1.24t-1.62-1.76t-0.6-2.56q0-0.84,0.32-1.84t1.08-1.9t2.08-1.48t3.36-0.58q1.08,0,2.4,0.36t2.56,1.36l-0.08-1.52l1.68,0l0,7l-1.28,0q-0.08-1.4-0.64-2.7t-1.64-2.16t-2.8-0.86q-1.84,0-2.88,0.92t-1.04,2.12q0,1.24,0.78,2.06t2.02,1.42t2.64,1.16q1.52,0.64,2.96,1.4t2.36,1.9t0.92,2.94q0,2-1.02,3.32t-2.6,1.94t-3.3,0.62z M198.68,58.2l0-1.2q1.24,0,1.72-0.62t0.56-1.72t0.08-2.54l0.08-19.32q0-0.64,0.02-1.28t0.14-1.32q-0.72,0.04-1.42,0.08t-1.42,0.08l0-1.68q1.76,0,2.66-0.16t1.32-0.4t0.7-0.52l1.2,0q0.04,0.4,0.08,0.94t0.08,1.22q1.2-1.08,2.86-1.74t3.34-0.66q2.32,0,4.32,1.2t3.24,3.42t1.24,5.3q0,3.4-1.42,5.96t-3.74,3.98t-5.04,1.42q-1.4,0-2.58-0.34t-2.22-0.98l0,6.64q0,0.8-0.02,1.42t-0.14,1.3q0.64-0.04,1.26-0.06t1.26-0.06l0,1.64l-8.16,0z M209.2,47.04q1.92,0,3.3-1.18t2.12-3.24t0.74-4.7q0-2.16-0.62-4.14t-1.96-3.22t-3.54-1.24q-1.36,0-2.62,0.66t-2.1,1.58q0,0.16,0.02,0.46t0.02,1.04l0,2.2t-0.02,3.94t-0.02,6.28q1,0.76,2.18,1.16t2.5,0.4z M222.52,46.8q1.24,0,1.72-0.62t0.56-1.72t0.08-2.54l0-18.92q0-0.64,0.02-1.22t0.1-1.38q-0.72,0.04-1.42,0.08t-1.42,0.08l0-1.68q1.76,0,2.74-0.16t1.48-0.4t0.78-0.52l1.16,0l0.04,25.96q0,0.8-0.04,1.42t-0.16,1.3q0.64-0.04,1.26-0.06t1.26-0.06l0,1.64l-8.16,0l0-1.2z M245.96,48q-0.12-0.68-0.16-1.2t-0.12-1.08q-1.36,1.36-2.94,2.14t-3.34,0.78q-3.04,0-4.52-1.38t-1.48-3.38q0-1.84,1.14-3.18t2.96-2.2t3.96-1.28t4.14-0.38l0-2.48q0-1.4-0.24-2.64t-1.04-2.04t-2.56-0.84q-1.16-0.04-2.38,0.44t-1.78,1.64q0.32,0.32,0.42,0.74t0.1,0.78q0,0.48-0.4,1.1t-1.4,0.58q-0.84,0-1.28-0.58t-0.44-1.38q0-1.36,1.02-2.44t2.82-1.72t4.08-0.64q3.36,0,4.96,1.78t1.56,5.62l0,2.98t-0.02,3t-0.02,3.02q0,0.64-0.04,1.28t-0.12,1.44q0.72-0.04,1.42-0.08t1.42-0.08l0,1.68l-5.72,0z M245.6,38.2q-1.36,0.04-2.86,0.34t-2.76,0.9t-2.04,1.58t-0.74,2.38q0.08,1.48,0.98,2.22t2.14,0.74q1.64,0,2.86-0.62t2.42-1.74q-0.04-0.44-0.04-0.96l0-1.08q0-0.2,0.02-1.28t0.02-2.48z M254.44,48l0-1.2q1.24,0,1.72-0.62t0.56-1.72t0.08-2.54l0.04-9.12q0-0.64,0.02-1.28t0.14-1.32q-0.72,0.04-1.42,0.08t-1.42,0.08l0-1.68q1.76,0,2.66-0.16t1.34-0.4t0.72-0.52l1.16,0q0.04,0.28,0.06,0.64t0.06,0.8t0.04,1q0.88-0.76,1.94-1.36t2.24-0.96t2.34-0.36q3.48,0,5.08,2.18t1.6,6.78l0,7.44q0,0.8-0.02,1.42t-0.14,1.3q0.64-0.04,1.26-0.06t1.26-0.06l0,1.64l-8.16,0l0-1.2q1.24,0,1.72-0.62t0.56-1.72t0.08-2.54l0-5.6q-0.04-3.44-1.14-5.2t-3.46-1.72q-1.44,0.04-2.82,0.76t-2.3,1.84q0.04,0.32,0.04,0.72l0,0.84l-0.04,10.2q0,0.8-0.02,1.42t-0.14,1.3q0.64-0.04,1.26-0.06t1.26-0.06l0,1.64l-8.16,0z M286.24,48.64q-0.92,0-1.88-0.26t-1.78-1.02t-1.3-2.22t-0.48-3.86l0.08-11.6l-3.08,0.04l0-1.72q1.04-0.04,2.12-0.78t1.94-2.02t1.18-2.8l1.36,0l0,5.6l6.72,0l0,1.56l-6.72,0.08l-0.08,11.12q0,1.8,0.3,3.06t0.98,1.9t1.76,0.64q1.12,0,2.1-0.64t1.74-1.76l1.08,0.88q-0.88,1.32-1.74,2.08t-1.66,1.14t-1.48,0.48t-1.16,0.1z  M302.72,48l0-1.32q1.2,0,1.84-0.64t1.06-1.76t0.98-2.6l8.24-22.44l0.96,0l8.92,22.76q0.32,0.84,0.72,2.16t0.32,2.24l1.36-0.08l1.36-0.08l0,1.76l-9.16,0l0-1.32q1.52-0.04,2-0.68t0.36-1.52t-0.4-1.6l-1.4-3.76l-10.4,0.24l-1.4,4.28q-0.28,0.96-0.5,1.52t-0.5,1.24q0.8-0.04,1.58-0.08t1.54-0.08l0,1.76l-7.48,0z M310.08,37.64l9.24,0l-2.84-7.64q-0.44-1.24-0.9-2.46t-0.9-2.46l-0.08,0q-0.4,1.12-0.82,2.24t-0.86,2.28z M338.2,48.64q-2.16,0-3.62-0.8t-2.2-2.72t-0.74-5.2l0-7.12q0-0.64,0.02-1.28t0.14-1.32q-0.68,0.04-1.38,0.06t-1.38,0.06l0-1.64l1.24,0q1.72,0,2.5-0.34t1.22-0.74l1.16,0l0,12.2q0,3.44,0.98,5.14t3.34,1.66q1.52-0.04,2.9-0.94t2.22-2.14l0-10.28q0-0.96,0.04-1.66t0.16-1.38q-0.72,0.04-1.44,0.06t-1.44,0.06l0-1.64l1.24,0q1.72,0,2.5-0.34t1.22-0.74l1.16,0l-0.04,15.12q0,0.64-0.04,1.8t-0.12,1.96l1.44-0.08l1.44-0.08l0,1.68l-5.72,0q-0.12-0.68-0.18-1.28t-0.1-1.12q-1.24,1.24-3,2.14t-3.52,0.9z M362.2,48.64q-2.44,0-4.4-1.22t-3.1-3.5t-1.14-5.36q0-3.28,1.32-5.8t3.66-3.96t5.3-1.44q1.32,0,2.62,0.34t2.06,0.78l0-5.48q0-0.64,0.02-1.22t0.1-1.38q-0.72,0.04-1.42,0.08t-1.42,0.08l0-1.68q1.76,0,2.72-0.16t1.46-0.4t0.78-0.52l1.16,0l0,25.96q0,0.64-0.04,1.28t-0.12,1.44q0.72-0.04,1.42-0.08t1.42-0.08l0,1.68l-5.72,0q-0.12-0.6-0.18-1.1t-0.1-0.98q-1.12,1.24-2.76,1.98t-3.64,0.74z M363.64,46.68q1.32,0,2.66-0.76t2.22-1.88q-0.04-0.48-0.04-1.02l0-1.18l0.04-11.52q-0.96-0.72-2.1-1.06t-2.34-0.34q-2,0-3.48,1.16t-2.24,3.24t-0.68,4.88q0.08,2.44,0.78,4.36t2,3.02t3.18,1.1z M377.56,46.8q1.24,0,1.72-0.62t0.56-1.72t0.08-2.54l0-9.12q0-0.64,0.04-1.22t0.12-1.38q-0.72,0.04-1.42,0.08t-1.42,0.08l0-1.68q1.76,0,2.72-0.16t1.46-0.4t0.78-0.52l1.16,0l0,16.16q0,0.8-0.02,1.42t-0.14,1.3q0.64-0.04,1.26-0.06t1.26-0.06l0,1.64l-8.16,0l0-1.2z M381.4,23.64q-0.84,0-1.48-0.68t-0.64-1.68t0.66-1.7t1.5-0.7q0.92,0,1.54,0.7t0.62,1.7t-0.66,1.68t-1.54,0.68z M396.32,48.64q-0.92,0-1.88-0.26t-1.78-1.02t-1.3-2.22t-0.48-3.86l0.08-11.6l-3.08,0.04l0-1.72q1.04-0.04,2.12-0.78t1.94-2.02t1.18-2.8l1.36,0l0,5.6l6.72,0l0,1.56l-6.72,0.08l-0.08,11.12q0,1.8,0.3,3.06t0.98,1.9t1.76,0.64q1.12,0,2.1-0.64t1.74-1.76l1.08,0.88q-0.88,1.32-1.74,2.08t-1.66,1.14t-1.48,0.48t-1.16,0.1z M412.48,48.64q-2,0-3.56-0.54t-2.56-1.22l0.16,1.4l-1.68,0l-0.24-6.88l1.24,0q0.08,1.64,0.92,2.94t2.16,2.02t2.84,0.72q1.04,0,2.04-0.34t1.68-1.04t0.68-1.78q0-1.12-0.66-1.86t-1.74-1.3t-2.32-1.04q-1.2-0.48-2.4-1t-2.22-1.24t-1.62-1.76t-0.6-2.56q0-0.84,0.32-1.84t1.08-1.9t2.08-1.48t3.36-0.58q1.08,0,2.4,0.36t2.56,1.36l-0.08-1.52l1.68,0l0,7l-1.28,0q-0.08-1.4-0.64-2.7t-1.64-2.16t-2.8-0.86q-1.84,0-2.88,0.92t-1.04,2.12q0,1.24,0.78,2.06t2.02,1.42t2.64,1.16q1.52,0.64,2.96,1.4t2.36,1.9t0.92,2.94q0,2-1.02,3.32t-2.6,1.94t-3.3,0.62z"/></g></svg>